<svg xmlns="http://www.w3.org/2000/svg" viewBox="0 0 173.11 133.79"><defs><style>.cls-1{fill:#60cae7;}.cls-1,.cls-2,.cls-4,.cls-5,.cls-6,.cls-7,.cls-8{stroke:#000;stroke-miterlimit:10;}.cls-2,.cls-4,.cls-5,.cls-6,.cls-7,.cls-8{fill:none;}.cls-3{fill:#ee2525;}.cls-4{opacity:0.7;}.cls-5{opacity:0.5;}.cls-6{opacity:0.3;}.cls-7{opacity:0.4;}.cls-8{opacity:0.2;}</style></defs><g id="Layer_2" data-name="Layer 2"><g id="Layer_1-2" data-name="Layer 1"><rect class="cls-1" x="11.74" y="10.72" width="150.13" height="40.85"/><line class="cls-2" x1="11.74" y1="133.79" x2="11.74"/><line class="cls-2" y1="10.72" x2="173.11" y2="10.72"/><line class="cls-2" x1="161.87" x2="161.87" y2="133.79"/><rect class="cls-3" x="20.43" y="18.38" width="24.77" height="24.77"/><rect class="cls-3" x="56.17" y="18.38" width="98.55" height="8.17"/><rect class="cls-3" x="56.17" y="31.19" width="98.55" height="3.06"/><line class="cls-2" x1="56.17" y1="43.15" x2="154.72" y2="43.15"/><line class="cls-2" x1="20.43" y1="60.58" x2="53.11" y2="60.58"/><line class="cls-2" x1="32.81" y1="70.28" x2="53.11" y2="70.28"/><line class="cls-2" x1="32.81" y1="79.99" x2="53.11" y2="79.99"/><line class="cls-2" x1="63.32" y1="65.59" x2="154.72" y2="65.59"/><line class="cls-2" x1="63.32" y1="71.46" x2="154.72" y2="71.46"/><line class="cls-2" x1="63.32" y1="77.33" x2="154.72" y2="77.33"/><line class="cls-2" x1="63.32" y1="83.61" x2="154.72" y2="83.61"/><line class="cls-4" x1="63.32" y1="89.48" x2="154.72" y2="89.48"/><line class="cls-4" x1="63.32" y1="95.35" x2="154.72" y2="95.35"/><line class="cls-4" x1="20.43" y1="89.69" x2="53.11" y2="89.69"/><line class="cls-4" x1="20.43" y1="99.39" x2="53.11" y2="99.39"/><line class="cls-4" x1="20.43" y1="109.09" x2="42.96" y2="109.09"/><line class="cls-5" x1="20.43" y1="117.77" x2="42.96" y2="117.77"/><line class="cls-6" x1="20.43" y1="127.47" x2="53.11" y2="127.47"/><line class="cls-7" x1="63.32" y1="108.39" x2="154.72" y2="108.39"/><line class="cls-7" x1="63.32" y1="114.67" x2="154.72" y2="114.67"/><line class="cls-8" x1="63.32" y1="120.54" x2="154.72" y2="120.54"/><line class="cls-8" x1="63.32" y1="126.41" x2="154.72" y2="126.41"/><line class="cls-2" x1="63.32" y1="58.58" x2="96" y2="58.58"/><line class="cls-4" x1="63.32" y1="101.87" x2="96" y2="101.87"/></g></g></svg>