<?xml version="1.0" encoding="utf-8"?>
<!-- Generator: Adobe Illustrator 25.2.0, SVG Export Plug-In . SVG Version: 6.00 Build 0)  -->
<svg version="1.1" id="PRINT" xmlns="http://www.w3.org/2000/svg" xmlns:xlink="http://www.w3.org/1999/xlink" x="0px" y="0px"
	 viewBox="0 0 595.3 841.9" style="enable-background:new 0 0 595.3 841.9;" xml:space="preserve">
<style type="text/css">
	.st0{display:none;}
	.st1{display:inline;fill:#EDEBEE;}
	.st2{display:inline;fill:#FADBD6;}
	.st3{fill:#E8BDB7;}
	.st4{font-family:'OpenSans-Extrabold';}
	.st5{font-size:9.2798px;}
	.st6{letter-spacing:1;}
	.st7{fill:#4C529F;}
	.st8{fill:#3D3C3C;}
	.st9{font-family:'OpenSans-Bold';}
	.st10{font-size:7.2176px;}
	.st11{fill:none;stroke:#4C529F;stroke-width:0.5155;stroke-miterlimit:10;}
	.st12{fill:none;stroke:#373A77;stroke-width:3.0933;stroke-miterlimit:10;}
	.st13{fill:#373A77;}
	.st14{font-family:'Gilroy-ExtraBold';}
	.st15{font-size:16.4974px;}
	.st16{letter-spacing:3;}
	.st17{fill:none;stroke:#4C529F;stroke-width:1.5466;stroke-miterlimit:10;}
	.st18{fill:none;}
	.st19{font-size:8.2487px;}
	.st20{font-family:'OpenSans';}
	.st21{font-size:10.3109px;}
	.st22{letter-spacing:2;}
	.st23{fill:#525252;}
	.st24{font-size:8.4481px;}
	.st25{fill:none;stroke:#4C529F;stroke-width:0.8249;stroke-miterlimit:10;}
	.st26{font-size:6.1865px;}
	.st27{fill:none;stroke:#373A77;stroke-width:0.8249;stroke-miterlimit:10;}
</style>
<g>
	<g class="st0">
		<rect x="-11.3" y="-11.3" class="st1" width="618" height="864.6"/>
		<rect x="118.4" y="-11.3" class="st2" width="131.7" height="119.2"/>
	</g>
	<g>
		<text transform="matrix(0 -1 1 0 574.0527 106.1582)"><tspan x="0" y="0" class="st3 st4 st5 st6">2019</tspan><tspan x="26.5" y="0" class="st7 st4 st5 st6">/2020</tspan></text>
		<g>
			<g>
				<text transform="matrix(1 0 0 1 188.4097 176.3623)" class="st8 st9 st10 st6">GRAPHIC DESIGN     WEB DESIGN     ART DIRECTION</text>
				<g>
					<g>
						<path class="st7" d="M265.1,173.7c0-0.8-0.7-1.5-1.5-1.5s-1.5,0.7-1.5,1.5c0,0.8,0.7,1.5,1.5,1.5S265.1,174.6,265.1,173.7z"/>
						<path class="st7" d="M340.9,173.7c0-0.8-0.7-1.5-1.5-1.5s-1.5,0.7-1.5,1.5c0,0.8,0.7,1.5,1.5,1.5S340.9,174.6,340.9,173.7z"/>
					</g>
					<g>
						<path class="st11" d="M431.9,173.7c0-0.8-0.7-1.5-1.5-1.5s-1.5,0.7-1.5,1.5c0,0.8,0.7,1.5,1.5,1.5S431.9,174.6,431.9,173.7z"
							/>
						<path class="st11" d="M166.3,173.7c0-0.8-0.7-1.5-1.5-1.5s-1.5,0.7-1.5,1.5c0,0.8,0.7,1.5,1.5,1.5S166.3,174.6,166.3,173.7z"
							/>
					</g>
				</g>
			</g>
			<g>
				<rect x="231.8" y="52.1" class="st12" width="131.7" height="103.7"/>
				<g>
					<text transform="matrix(1 0 0 1 260.8027 99.3643)"><tspan x="0" y="0" class="st13 st14 st15 st16">RESUME</tspan><tspan x="2.2" y="22.7" class="st13 st14 st15 st16">DESIGN</tspan></text>
					<path class="st17" d="M301.5,72.7c0-2.1-1.7-3.9-3.9-3.9c-2.1,0-3.9,1.7-3.9,3.9c0,2.1,1.7,3.9,3.9,3.9
						C299.8,76.6,301.5,74.9,301.5,72.7z"/>
				</g>
				<line class="st17" x1="287.4" y1="137.1" x2="307.9" y2="137.1"/>
			</g>
		</g>
		<g>
			<g>
				<g>
					<rect x="323" y="246.2" class="st18" width="105.7" height="46.1"/>
					<text transform="matrix(1 0 0 1 322.9541 252.0703)"><tspan x="0" y="0" class="st13 st9 st19">www.johnwillson.com</tspan><tspan x="0" y="14.4" class="st8 st20 st19">+00 600 123 456</tspan><tspan x="0" y="28.9" class="st8 st20 st19">hello@johnwillson.com</tspan></text>
					<g>
						<text transform="matrix(1 0 0 1 322.9551 229.6914)" class="st13 st14 st21 st22">CONTACT ME</text>
					</g>
				</g>
				<g>
					<g>
						<rect x="44.1" y="246.2" class="st18" width="226.6" height="46.1"/>
						<text transform="matrix(1.0094 0 0 1 52.8257 252.0703)"><tspan x="0" y="0" class="st23 st20 st19">Lorem ipsum dolor sit amet, consectetur adipiscing elit, sed </tspan><tspan x="-2.8" y="14.4" class="st23 st20 st19">do eiusmod tempor incididunt ut labore ut  minim ad minim </tspan><tspan x="117.1" y="28.9" class="st23 st20 st19">veniam, quis nostrud ex ea.</tspan></text>
					</g>
					<g>
						<text transform="matrix(1.0094 0 0 1 209.293 229.6904)" class="st13 st14 st21 st22">ABOUT ME</text>
					</g>
				</g>
				<g>
					<g>
						<text transform="matrix(1 0 0 1 322.9551 342.915)" class="st13 st14 st21 st22">EDUCATION</text>
					</g>
					<g>
						<rect x="321.3" y="361.5" class="st18" width="228.2" height="55.8"/>
						<text transform="matrix(1 0 0 1 321.3145 367.3584)"><tspan x="0" y="0" class="st13 st9 st19">LOREM IPSUM DOLOR</tspan><tspan x="82.8" y="0" class="st13 st20 st19">  2017 - 2018</tspan><tspan x="0" y="18.6" class="st8 st20 st19">Lorem ipsum dolor sit amet enim, consectetur adipiscing elit, </tspan><tspan x="0" y="33" class="st8 st20 st19">sed do eiusmod tempor incididunt ut labore et dolore magna </tspan><tspan x="0" y="47.4" class="st8 st20 st19">aliqua. </tspan></text>
						<g>
							<rect x="321.3" y="438.7" class="st18" width="228.2" height="54.6"/>
							<text transform="matrix(1 0 0 1 321.3145 444.7061)"><tspan x="0" y="0" class="st13 st9 st24">ENIM AD MINIM  </tspan><tspan x="66" y="0" class="st13 st20 st24">2012 - 2014</tspan><tspan x="0" y="18.6" class="st8 st20 st19">Ut enim ad minim veniam, quis nostrud exercitation ullamco </tspan><tspan x="0" y="33" class="st8 st20 st19">laboris nisi ut aliquip ex ea commodo.</tspan></text>
						</g>
					</g>
				</g>
				<g>
					<g>
						<g>
							<rect x="44.1" y="362.1" class="st18" width="226.6" height="57.5"/>
							<text transform="matrix(1 0 0 1 141.9927 367.9551)"><tspan x="0" y="0" class="st13 st9 st19">LOREM IPSUM DOLOR</tspan><tspan x="82.8" y="0" class="st13 st20 st19">  2015 - 2018</tspan><tspan x="-92.8" y="18.6" class="st8 st20 st19">Lorem ipsum dolor sit amet enim, consectetur adipiscing elit, </tspan><tspan x="-93.5" y="33" class="st8 st20 st19">sed do eiusmod tempor incididunt ut labore et dolore magna </tspan><tspan x="104.7" y="47.4" class="st8 st20 st19">aliqua. </tspan></text>
							<g>
								<rect x="44.1" y="438.7" class="st18" width="226.6" height="56.2"/>
								<text transform="matrix(1 0 0 1 164.668 444.5645)"><tspan x="0" y="0" class="st13 st9 st19">ENIM AD MINIM</tspan><tspan x="60.1" y="0" class="st13 st20 st19">  2008 - 2014</tspan><tspan x="-113.1" y="18.6" class="st8 st20 st19">Ut enim ad minim veniam, quis nostrud exercitation ullamco </tspan><tspan x="-31.3" y="33" class="st8 st20 st19">laboris nisi ut aliquip ex ea commodo.</tspan></text>
							</g>
							<g>
								<rect x="44.1" y="500.6" class="st18" width="226.6" height="48.8"/>
								<text transform="matrix(1 0 0 1 157.2607 506.459)"><tspan x="0" y="0" class="st13 st9 st19">EXCEPTETUR SINT</tspan><tspan x="67.5" y="0" class="st13 st20 st19">  2013 - 2014</tspan><tspan x="-112.1" y="18.6" class="st8 st20 st19">Exceptetur sint occaecat cupidatat non proident, sunt in culpa </tspan><tspan x="-35.7" y="33" class="st8 st20 st19">qui officia deserunt mollit id est laborum.</tspan></text>
							</g>
							<g>
								<rect x="44.1" y="565" class="st18" width="226.6" height="48.8"/>
								<text transform="matrix(1 0 0 1 186.6338 570.873)"><tspan x="0" y="0" class="st13 st9 st19">ULLAMCO</tspan><tspan x="38.2" y="0" class="st13 st20 st19">  2005 - 2011</tspan><tspan x="-141.5" y="18.6" class="st8 st20 st19">Exceptetur sint occaecat cupidatat non proident, sunt in culpa </tspan><tspan x="-65.1" y="33" class="st8 st20 st19">qui officia deserunt mollit id est laborum.</tspan></text>
							</g>
						</g>
						<g>
							<g>
								<g>
									<text transform="matrix(1 0 0 1 160.1836 343.4668)" class="st13 st14 st21 st22">WORK EXPERIENCE</text>
								</g>
							</g>
						</g>
					</g>
				</g>
				<g>
					<g>
						<text transform="matrix(1 0 0 1 322.9551 539.7275)" class="st13 st14 st21 st22">AWARDS</text>
					</g>
					<g>
						<g>
							<rect x="323" y="558.4" class="st18" width="105.7" height="46.1"/>
							<text transform="matrix(1 0 0 1 322.9541 564.2109)"><tspan x="0" y="0" class="st13 st9 st19">DESIGN AWARDS ‘18</tspan><tspan x="0" y="14.4" class="st8 st20 st19">’Perfume Packaging’</tspan><tspan x="0" y="28.9" class="st8 st20 st19">Design Studio (New York)</tspan></text>
							<rect x="323" y="616.1" class="st18" width="105.7" height="46.1"/>
							<text transform="matrix(1 0 0 1 322.9541 621.9883)"><tspan x="0" y="0" class="st13 st9 st19">DESIGN CONTEST ‘16</tspan><tspan x="0" y="14.4" class="st8 st20 st19">‘Design Fest Poster’</tspan><tspan x="0" y="28.9" class="st8 st20 st19">Designin Room (London)</tspan></text>
							<rect x="323" y="673.9" class="st18" width="105.7" height="46.1"/>
							<text transform="matrix(1 0 0 1 322.9541 679.7617)"><tspan x="0" y="0" class="st13 st9 st19">ART DIRECTION</tspan><tspan x="0" y="14.4" class="st8 st20 st19">‘Bisquit Packaging’</tspan><tspan x="0" y="28.9" class="st8 st20 st19">Designing Room (London)</tspan></text>
							<rect x="323" y="731.7" class="st18" width="105.7" height="46.1"/>
							<text transform="matrix(1 0 0 1 322.9541 737.54)"><tspan x="0" y="0" class="st13 st9 st19">GOLD DESIGN CONTEST</tspan><tspan x="0" y="14.4" class="st8 st20 st19">‘Objeto de Diseño’</tspan><tspan x="0" y="28.9" class="st8 st20 st19">The Design Team (Spain)</tspan></text>
						</g>
					</g>
				</g>
				<g>
					<g>
						<g>
							<g>
								<text transform="matrix(1 0 0 1 232.3794 662.2129)" class="st13 st14 st21 st22">SKILLS</text>
							</g>
						</g>
					</g>
					<g>
						<g>
							<g>
								<g>
									<rect x="47.4" y="689.5" class="st25" width="100.1" height="6"/>
									<rect x="47.4" y="689.5" class="st7" width="84.4" height="6"/>
								</g>
								<g>
									<text transform="matrix(1 0 0 1 47.4229 684.7881)" class="st13 st9 st19">ILLUSTRATION</text>
								</g>
							</g>
							<g>
								<g>
									<rect x="170.6" y="689.5" class="st25" width="100.1" height="6"/>
									<rect x="170.6" y="689.5" class="st7" width="71.3" height="6"/>
								</g>
								<g>
									<text transform="matrix(1 0 0 1 170.5879 684.7881)" class="st13 st9 st19">PHOTO EDIT</text>
								</g>
							</g>
							<g>
								<g>
									<rect x="47.4" y="724" class="st25" width="100.1" height="6"/>
									<rect x="47.4" y="724" class="st7" width="45.5" height="6"/>
								</g>
								<g>
									<text transform="matrix(1 0 0 1 47.4229 719.3594)" class="st13 st9 st19">WEB</text>
								</g>
							</g>
							<g>
								<g>
									<rect x="170.6" y="724" class="st25" width="100.1" height="6"/>
									<rect x="170.6" y="724" class="st7" width="29.5" height="6"/>
								</g>
								<g>
									<text transform="matrix(1 0 0 1 169.8057 719.3594)" class="st13 st9 st19">CEO</text>
								</g>
							</g>
						</g>
						<g>
							<rect x="97.4" y="749.6" class="st18" width="173.2" height="28.2"/>
							<text transform="matrix(1.0094 0 0 1 98.5381 753.9766)"><tspan x="0" y="0" class="st7 st20 st26">Lorem ipsum dolor sit amet, consectetur adipiscing elit, sed do </tspan><tspan x="68.5" y="12.4" class="st7 st20 st26">eiusmod tempor incididunt ut labore.</tspan></text>
						</g>
					</g>
				</g>
			</g>
			<g>
				<g>
					<line class="st27" x1="297.6" y1="201.8" x2="297.6" y2="780.1"/>
					<line class="st27" x1="297.6" y1="308.2" x2="549.5" y2="308.2"/>
					<line class="st27" x1="297.6" y1="506.5" x2="549.5" y2="506.5"/>
					<line class="st27" x1="44.1" y1="308.2" x2="297.6" y2="308.2"/>
					<line class="st27" x1="44.1" y1="630.5" x2="297.6" y2="630.5"/>
				</g>
				<g>
					<circle class="st7" cx="297.6" cy="227.6" r="8.4"/>
					
						<ellipse transform="matrix(0.3827 -0.9239 0.9239 0.3827 -130.5375 484.9761)" class="st7" cx="297.6" cy="340.2" rx="8.4" ry="8.4"/>
					<circle class="st7" cx="297.6" cy="659.1" r="8.4"/>
					<circle class="st7" cx="297.6" cy="536" r="8.4"/>
				</g>
			</g>
		</g>
	</g>
</g>
</svg>
